<svg version="1" xmlns="http://www.w3.org/2000/svg" width="853.333" height="853.333" viewBox="0 0 640.000000 640.000000"><path d="M300.5.7c-44.7 3.5-81.2 13-117.5 30.4-35 16.8-61.8 35.8-88.5 62.4-27 26.8-45.5 52.9-62.1 87-15.3 31.7-23.8 59.1-29.4 96-2.4 15.6-3.7 53-2.3 67l.8 8 8 1.2c39.7 6.2 119.5 13.9 169.5 16.4 12.4.6 23.5 1.4 24.8 1.8 1.7.5 3.1 2.7 5.7 9 5.7 14 12.8 24.3 25.5 37.1 15.2 15.4 28.3 23.8 46.5 29.9 37.1 12.4 78.7 5.9 109.5-16.9 16.4-12.3 32.2-32.2 39.5-50.1l3.4-8.4 4.8-.7c2.6-.4 17.4-1.4 32.8-2.3 48.2-2.8 108.6-8.6 148.5-14.4l18.5-2.7.6-6.9c1-10.9.9-40.1-.1-50-8.2-79.8-39.3-146.8-93-200.5-41.8-41.8-92.6-70.4-150.3-84.5-29-7.1-69.5-10.9-95.2-8.8zm31.4 280.8c19.4 4.6 36 21.4 40 40.3 5.6 27-10 54.1-35.8 62.3-9.1 2.9-23.1 2.9-32.1 0-22-7-37-27.8-37-51.1 0-14.1 4.6-25.4 14.6-36 13.3-14 32-19.8 50.3-15.5z"/></svg>